Simulation
nRows=24
nColumns=15
endheader
time  TH_x TH_y TH_z SC_y  SC_z  SC_x  AC_y  AC_z  AC_x  GH_y  GH_z  GH_yy  EL_x  PS_y
0.0  0.000000  0.000000  0.000000  -28.768077850315333  -0.4157301062880903  1.1996335290111175  48.59159696337311  4.456244259424465  -4.880339998684207  -114.4857322627213  2.468172325427753  145.50315550866648  22.758014697725503  0.000000
0.031  0.000000  0.000000  0.000000  -28.712034659510405  -0.27496023246834517  1.4367507384781835  48.40328513395009  4.494150687888499  -5.034287046813844  -106.59908124632797  2.3549880670444856  137.54299798761184  22.73802351762963  0.000000
0.062  0.000000  0.000000  0.000000  -28.58883287391072  -0.207341590465805  1.673336766383573  48.30724326757169  4.321622667973443  -5.233264351063466  -99.44171516358516  2.2366875624577878  130.34307866163218  22.732539608893816  0.000000
0.093  0.000000  0.000000  0.000000  -28.58100169370668  -0.21449590358057713  1.9134472485827263  48.236187531495055  4.060140805429293  -5.45018656822021  -92.824351367012  2.0746779549779286  123.67479732664613  22.693201086500075  0.000000
0.124  0.000000  0.000000  0.000000  -28.55602277438288  -0.26205072589541845  2.1423701508195068  48.16832823931871  3.787993111673051  -5.691522099919695  -86.63801861175078  1.867115844719478  117.39914284088957  22.605920794164362  0.000000
0.155  0.000000  0.000000  0.000000  -28.56430440091759  -0.3333369850190737  2.3628456277692416  48.12742720466002  3.5340183436019723  -5.94085669082311  -78.15877448856045  1.6176531019154474  108.79226175905148  22.48469041673602  0.000000
0.186  0.000000  0.000000  0.000000  -28.584159928811367  -0.4119376836646803  2.5668684087535425  48.07828088396063  3.31159392793146  -6.177902697513112  -64.2484462805968  1.3714579895040167  94.66713674055977  22.330167691990578  0.000000
0.217  0.000000  0.000000  0.000000  -28.63060880902508  -0.49083874075426165  2.756205201200414  48.05187104747103  3.119060872230828  -6.402956302065653  -40.83128207267684  1.2433728689194625  70.9435631047203  22.14938210033043  0.000000
0.248  0.000000  0.000000  0.000000  -28.696822213513904  -0.5624444472597299  2.9310872920953748  48.0215920394738  2.9573795473673563  -6.60402640543818  -13.342265410189658  1.4153293038519952  43.04101441007027  21.956447082748696  0.000000
0.279  0.000000  0.000000  0.000000  -28.779212955769385  -0.6226853843893049  3.0944647611317846  48.005222097171476  2.82156053863321  -6.786538208996111  6.7947258258627095  1.92523903352985  22.38745787042386  21.75143547161281  0.000000
0.31  0.000000  0.000000  0.000000  -28.869239481630455  -0.6687898510622557  3.251430126244684  47.99055819020279  2.7123425775639727  -6.94670177396419  18.297660601642317  2.6717265329938846  10.274264506576253  21.54986156515309  0.000000
0.34099999999999997  0.000000  0.000000  0.000000  -28.959568766066383  -0.6999929958207809  3.406188302976044  47.98940741643045  2.6244409734541816  -7.085664231667915  24.87673371434872  3.5768805245427404  2.9955059036154363  21.356598916606586  0.000000
0.372  0.000000  0.000000  0.000000  -29.04897194251073  -0.720609120770375  3.5638296635834794  48.00714378616144  2.5550867936064234  -7.199808067504456  28.772305031536774  4.599667550547506  -1.6899624883825175  21.19598424327049  0.000000
0.403  0.000000  0.000000  0.000000  -29.13804136034962  -0.7364255537024832  3.7267397383547847  48.057427129890584  2.4980330098099213  -7.283962149967652  31.083679384371628  5.720169667307277  -4.89121502241596  21.089880737740582  0.000000
0.434  0.000000  0.000000  0.000000  -29.228583405137407  -0.7540776978070625  3.894819115560049  48.15029266290541  2.451719983392332  -7.3359800184950625  32.359151698651694  6.927486591087859  -7.161973912508316  21.062641687754233  0.000000
0.46499999999999997  0.000000  0.000000  0.000000  -29.317046931501622  -0.7749416704640236  4.067146794084369  48.28606668901305  2.414921081437812  -7.353330426272762  32.90045766427232  8.213707744595881  -8.788924323398218  21.115221548309826  0.000000
0.496  0.000000  0.000000  0.000000  -29.391753460900443  -0.7956305520765596  4.242333045339748  48.45981798802568  2.39177041833908  -7.342435367015122  32.93592756817084  9.575372998050964  -9.959920681364897  21.22697020928292  0.000000
0.527  0.000000  0.000000  0.000000  -29.439279516016008  -0.8075264756275952  4.422582490594075  48.654701645371794  2.387089832075937  -7.3088328396038245  32.61822559567747  11.005394544066027  -10.772884494467558  21.361259354669926  0.000000
0.558  0.000000  0.000000  0.000000  -29.453099663904165  -0.7997535345102786  4.603845789842008  48.85565912468448  2.410942584222118  -7.25792371273423  32.08463238714246  12.500172328267748  -11.319135140916874  21.485278470234412  0.000000
0.589  0.000000  0.000000  0.000000  -29.440827603407413  -0.7605446624846545  4.791123650947497  49.0474972559456  2.4632456368304108  -7.193294575188512  31.430574139715638  14.054299677305378  -11.667449578393242  21.579371364235595  0.000000
0.62  0.000000  0.000000  0.000000  -29.416981200840382  -0.6806879289432569  4.9993240449716  49.22083925985985  2.5352045799340086  -7.126672514375552  30.75523028179538  15.664352922639786  -11.913419298993542  21.63629404327893  0.000000
0.651  0.000000  0.000000  0.000000  -29.398110221564334  -0.556398057547048  5.242688378407322  49.37188059806913  2.618609720326898  -7.065832742788528  30.122574404754772  17.325661947710532  -12.126872839069579  21.65654590448514  0.000000
0.6819999999999999  0.000000  0.000000  0.000000  -29.387577281100302  -0.39278421873198444  5.527554463309583  49.5039592230851  2.70701866141692  -7.01537172439966  29.55118253738281  19.037500221076773  -12.340500175053787  21.643510979643153  0.000000
0.713  0.000000  0.000000  0.000000  -29.380810922588964  -0.20257133032240401  5.860147449263214  49.62655467933862  2.7906254842938227  -6.9798513657174475  29.013092079351967  20.80161302719992  -12.543151798261237  21.604971175934526  0.000000
